<svg width="25" height="24" viewBox="0 0 25 24" fill="none" xmlns="http://www.w3.org/2000/svg">
<mask id="mask0_126_529" style="mask-type:alpha" maskUnits="userSpaceOnUse" x="0" y="1" width="25" height="22">
<path d="M7.38574 1.38684C3.80831 1.38684 0.885742 4.26137 0.885742 7.83434C0.885742 9.17413 1.1555 11.3513 2.64261 13.9312C4.12561 16.5039 6.77992 19.4092 11.4435 22.2762L11.4484 22.2792C11.8062 22.4969 12.2169 22.612 12.6357 22.612C13.0546 22.612 13.4653 22.4969 13.8231 22.2792L13.828 22.2762C18.4916 19.4092 21.1459 16.5039 22.6289 13.9312C24.116 11.3513 24.3857 9.17413 24.3857 7.83434C24.3857 4.26137 21.4632 1.38684 17.8857 1.38684C16.001 1.38684 14.4065 2.39527 13.3759 3.24944C13.0998 3.47832 12.8518 3.70643 12.6357 3.9188C12.4197 3.70643 12.1717 3.47832 11.8956 3.24944C10.865 2.39527 9.27045 1.38684 7.38574 1.38684Z" fill="#006FFD"/>
</mask>
<g mask="url(#mask0_126_529)">
<rect x="0.635742" y="-0.000549316" width="24" height="24" fill="black"/>
</g>
</svg>
